<?xml version="1.0" encoding="utf-8"?>
<!-- Generator: Adobe Illustrator 16.0.0, SVG Export Plug-In . SVG Version: 6.00 Build 0)  -->
<!DOCTYPE svg PUBLIC "-//W3C//DTD SVG 1.1//EN" "http://www.w3.org/Graphics/SVG/1.1/DTD/svg11.dtd">
<svg version="1.1" id="Calque_1" xmlns="http://www.w3.org/2000/svg" xmlns:xlink="http://www.w3.org/1999/xlink" x="0px" y="0px"
	 width="91.477px" height="91.475px" viewBox="0 0 91.477 91.475" enable-background="new 0 0 91.477 91.475" xml:space="preserve">
<circle fill="#FFFFFF" cx="45.738" cy="45.738" r="45.738"/>
<g>
	<path fill="#FF28B6" d="M63.738,29.737h-4h-5.942v-5.199c0-1.381-0.677-2.801-2.058-2.801h-12c-1.381,0-2.942,1.42-2.942,2.801
		v5.199h-5.058h-4c-1.381,0-2.5,1.119-2.5,2.5s1.119,2.5,2.5,2.5h1.058v32.002c0,1.381,1.562,2.998,2.942,2.998h28
		c1.381,0,2.058-1.617,2.058-2.998V34.737h1.942c1.381,0,2.5-1.119,2.5-2.5S65.119,29.737,63.738,29.737z M41.796,26.737h7v3h-7
		V26.737z"/>
	<g>
		<path fill="#FFFFFF" d="M37.738,64.038c-1.104,0-2-0.896-2-2v-20c0-1.104,0.896-2,2-2s2,0.896,2,2v20
			C39.738,63.143,38.843,64.038,37.738,64.038z"/>
		<path fill="#FFFFFF" d="M45.738,64.038c-1.104,0-2-0.896-2-2v-20c0-1.104,0.896-2,2-2s2,0.896,2,2v20
			C47.738,63.143,46.843,64.038,45.738,64.038z"/>
		<path fill="#FFFFFF" d="M53.738,64.038c-1.104,0-2-0.896-2-2v-20c0-1.104,0.896-2,2-2s2,0.896,2,2v20
			C55.738,63.143,54.843,64.038,53.738,64.038z"/>
	</g>
</g>
</svg>
