<?xml version="1.0" encoding="utf-8"?>
<!-- Generator: Adobe Illustrator 16.0.0, SVG Export Plug-In . SVG Version: 6.00 Build 0)  -->
<!DOCTYPE svg PUBLIC "-//W3C//DTD SVG 1.1//EN" "http://www.w3.org/Graphics/SVG/1.1/DTD/svg11.dtd">
<svg version="1.1" id="Calque_1" xmlns="http://www.w3.org/2000/svg" xmlns:xlink="http://www.w3.org/1999/xlink" x="0px" y="0px"
	 width="91.477px" height="91.476px" viewBox="0 0 91.477 91.476" enable-background="new 0 0 91.477 91.476" xml:space="preserve">
<circle fill="#FFFFFF" cx="45.738" cy="45.738" r="45.738"/>
<g>
	<path fill="#FF28B6" d="M44.165,56.742c0.479,0.442,1.087,0.663,1.696,0.663s1.217-0.221,1.695-0.663l13-12
		c0.757-0.698,1.008-1.973,0.633-2.932c-0.375-0.959-1.299-1.774-2.328-1.774h-5.229v-11.5c0-1.381-1.119-2.5-2.5-2.5h-11
		c-1.381,0-2.5,1.119-2.5,2.5v11.5H32.86c-1.029,0-1.954,0.815-2.328,1.774c-0.375,0.958-0.124,2.141,0.632,2.839L44.165,56.742z"/>
	<path fill="#FF28B6" d="M62.632,61.036h-34c-1.381,0-2.5,1.119-2.5,2.5s1.119,2.5,2.5,2.5h34c1.381,0,2.5-1.119,2.5-2.5
		S64.013,61.036,62.632,61.036z"/>
</g>
</svg>
