<?xml version="1.0" encoding="utf-8"?>
<!-- Generator: Adobe Illustrator 19.0.0, SVG Export Plug-In . SVG Version: 6.00 Build 0)  -->
<svg version="1.1" id="Calque_1" xmlns="http://www.w3.org/2000/svg" xmlns:xlink="http://www.w3.org/1999/xlink" x="0px" y="0px"
	 viewBox="-349 261.5 91.5 91.5" style="enable-background:new -349 261.5 91.5 91.5;" xml:space="preserve">
<style type="text/css">
	.st0{fill:#FFFFFF;}
	.st1{fill:#FF28B6;}
</style>
<circle class="st0" cx="-303.3" cy="307.3" r="45.7"/>
<path class="st1" d="M-286.3,304.8h-34c-1.4,0-2.5,1.1-2.5,2.5c0,1.4,1.1,2.5,2.5,2.5h34c1.4,0,2.5-1.1,2.5-2.5
	C-283.8,305.9-284.9,304.8-286.3,304.8z"/>
<path class="st1" d="M-305.8,290.3v34c0,1.4,1.1,2.5,2.5,2.5c1.4,0,2.5-1.1,2.5-2.5v-34c0-1.4-1.1-2.5-2.5-2.5
	C-304.6,287.8-305.8,288.9-305.8,290.3z"/>
</svg>
