<?xml version="1.0" encoding="utf-8"?>
<!-- Generator: Adobe Illustrator 16.0.0, SVG Export Plug-In . SVG Version: 6.00 Build 0)  -->
<!DOCTYPE svg PUBLIC "-//W3C//DTD SVG 1.1//EN" "http://www.w3.org/Graphics/SVG/1.1/DTD/svg11.dtd">
<svg version="1.1" id="Calque_1" xmlns="http://www.w3.org/2000/svg" xmlns:xlink="http://www.w3.org/1999/xlink" x="0px" y="0px"
	 width="91.477px" height="91.476px" viewBox="0 0 91.477 91.476" enable-background="new 0 0 91.477 91.476" xml:space="preserve">
<circle fill="#FFFFFF" cx="45.738" cy="45.738" r="45.738"/>
<path fill="#FF28B6" d="M45.738,24.738c-9.901,0-18.202,6.896-20.407,16.131h-5.449c-0.984,0-1.877,0.578-2.281,1.476
	c-0.403,0.898-0.242,1.949,0.412,2.685l8,9c0.475,0.533,1.155,0.839,1.869,0.839c0.714,0,1.394-0.306,1.869-0.839l8-9
	c0.654-0.736,0.815-1.787,0.412-2.685c-0.403-0.898-1.296-1.476-2.281-1.476h-5.38c2.066-6.448,8.112-11.131,15.237-11.131
	c8.822,0,16,7.178,16,16s-7.178,16-16,16c-2.593,0-5.064-0.6-7.347-1.782c-1.226-0.634-2.734-0.157-3.37,1.069
	s-0.156,2.735,1.07,3.37c2.958,1.532,6.294,2.343,9.647,2.343c11.579,0,21-9.421,21-21C66.738,34.159,57.317,24.738,45.738,24.738z"
	/>
</svg>
